HIERARCHY
ROOT Hips
{
    OFFSET 0.000000 0.000000 0.000000
    CHANNELS 6 Xposition Yposition Zposition Zrotation Xrotation Yrotation
    JOINT Spine
    {
        OFFSET -0.000000 7.284621 0.000000
        CHANNELS 3 Zrotation Xrotation Yrotation
        JOINT Spine1
        {
            OFFSET -0.000000 19.968920 0.000000
            CHANNELS 3 Zrotation Xrotation Yrotation
            JOINT Neck
            {
                OFFSET -0.000000 21.745657 0.000000
                CHANNELS 3 Zrotation Xrotation Yrotation
                JOINT Head
                {
                    OFFSET -0.000000 13.769711 1.776737
                    CHANNELS 3 Zrotation Xrotation Yrotation
                    End Site
                    {
                        OFFSET -0.000000 17.767368 0.000000
                    }
                }
            }
            JOINT LeftShoulder
            {
                OFFSET 3.594505 17.711157 -0.013107
                CHANNELS 3 Zrotation Xrotation Yrotation
                JOINT LeftArm
                {
                    OFFSET 12.210003 0.000000 0.000000
                    CHANNELS 3 Zrotation Xrotation Yrotation
                    JOINT LeftForeArm
                    {
                        OFFSET 24.535166 0.000000 0.000000
                        CHANNELS 3 Zrotation Xrotation Yrotation
                        JOINT LeftHand
                        {
                            OFFSET 20.235195 0.000000 0.000000
                            CHANNELS 3 Zrotation Xrotation Yrotation
                            JOINT LeftHandThumb1
                            {
                                OFFSET 1.906737 -2.166747 3.033446
                                CHANNELS 3 Zrotation Xrotation Yrotation
                                JOINT LeftHandThumb2
                                {
                                    OFFSET 2.043247 0.000000 1.332553
                                    CHANNELS 3 Zrotation Xrotation Yrotation
                                    JOINT LeftHandThumb3
                                    {
                                        OFFSET 2.665105 0.000000 0.000000
                                        CHANNELS 3 Zrotation Xrotation Yrotation
                                        End Site
                                        {
                                            OFFSET 2.367595 0.000000 0.000000
                                        }
                                    }
                                }
                            }
                            JOINT LeftHandIndex1
                            {
                                OFFSET 7.800290 0.000000 3.033446
                                CHANNELS 3 Zrotation Xrotation Yrotation
                                JOINT LeftHandIndex2
                                {
                                    OFFSET 4.441842 0.000000 0.000000
                                    CHANNELS 3 Zrotation Xrotation Yrotation
                                    JOINT LeftHandIndex3
                                    {
                                        OFFSET 2.220921 0.000000 0.000000
                                        CHANNELS 3 Zrotation Xrotation Yrotation
                                        End Site
                                        {
                                            OFFSET 1.972996 0.000000 0.000000
                                        }
                                    }
                                }
                            }
                            JOINT LeftHandMiddle1
                            {
                                OFFSET 7.800290 0.000000 1.005371
                                CHANNELS 3 Zrotation Xrotation Yrotation
                                JOINT LeftHandMiddle2
                                {
                                    OFFSET 4.886026 0.000000 0.000000
                                    CHANNELS 3 Zrotation Xrotation Yrotation
                                    JOINT LeftHandMiddle3
                                    {
                                        OFFSET 2.665105 0.000000 0.000000
                                        CHANNELS 3 Zrotation Xrotation Yrotation
                                        End Site
                                        {
                                            OFFSET 2.367595 0.000000 0.000000
                                        }
                                    }
                                }
                            }
                            JOINT LeftHandRing1
                            {
                                OFFSET 7.366940 0.000000 -1.005371
                                CHANNELS 3 Zrotation Xrotation Yrotation
                                JOINT LeftHandRing2
                                {
                                    OFFSET 4.441842 0.000000 0.000000
                                    CHANNELS 3 Zrotation Xrotation Yrotation
                                    JOINT LeftHandRing3
                                    {
                                        OFFSET 2.220921 0.000000 0.000000
                                        CHANNELS 3 Zrotation Xrotation Yrotation
                                        End Site
                                        {
                                            OFFSET 1.972996 0.000000 0.000000
                                        }
                                    }
                                }
                            }
                            JOINT LeftHandPinky1
                            {
                                OFFSET 6.933591 0.000000 -3.033446
                                CHANNELS 3 Zrotation Xrotation Yrotation
                                JOINT LeftHandPinky2
                                {
                                    OFFSET 3.553473 0.000000 0.000000
                                    CHANNELS 3 Zrotation Xrotation Yrotation
                                    JOINT LeftHandPinky3
                                    {
                                        OFFSET 1.776737 0.000000 0.000000
                                        CHANNELS 3 Zrotation Xrotation Yrotation
                                        End Site
                                        {
                                            OFFSET 1.578397 0.000000 0.000000
                                        }
                                    }
                                }
                            }
                        }
                    }
                }
            }
            JOINT RightShoulder
            {
                OFFSET -3.500468 17.711157 -0.013107
                CHANNELS 3 Zrotation Xrotation Yrotation
                JOINT RightArm
                {
                    OFFSET -12.210003 0.000000 0.000000
                    CHANNELS 3 Zrotation Xrotation Yrotation
                    JOINT RightForeArm
                    {
                        OFFSET -24.535166 0.000000 0.000000
                        CHANNELS 3 Zrotation Xrotation Yrotation
                        JOINT RightHand
                        {
                            OFFSET -20.235195 0.000000 0.000000
                            CHANNELS 3 Zrotation Xrotation Yrotation
                            JOINT RightHandThumb1
                            {
                                OFFSET -1.906737 -2.166747 3.033446
                                CHANNELS 3 Zrotation Xrotation Yrotation
                                JOINT RightHandThumb2
                                {
                                    OFFSET -2.043247 0.000000 1.332553
                                    CHANNELS 3 Zrotation Xrotation Yrotation
                                    JOINT RightHandThumb3
                                    {
                                        OFFSET -2.665105 0.000000 0.000000
                                        CHANNELS 3 Zrotation Xrotation Yrotation
                                        End Site
                                        {
                                            OFFSET -2.367595 0.000000 0.000000
                                        }
                                    }
                                }
                            }
                            JOINT RightHandIndex1
                            {
                                OFFSET -7.800290 0.000000 3.033446
                                CHANNELS 3 Zrotation Xrotation Yrotation
                                JOINT RightHandIndex2
                                {
                                    OFFSET -4.441842 0.000000 0.000000
                                    CHANNELS 3 Zrotation Xrotation Yrotation
                                    JOINT RightHandIndex3
                                    {
                                        OFFSET -2.220921 0.000000 0.000000
                                        CHANNELS 3 Zrotation Xrotation Yrotation
                                        End Site
                                        {
                                            OFFSET -1.972996 0.000000 0.000000
                                        }
                                    }
                                }
                            }
                            JOINT RightHandMiddle1
                            {
                                OFFSET -7.800290 0.000000 1.005371
                                CHANNELS 3 Zrotation Xrotation Yrotation
                                JOINT RightHandMiddle2
                                {
                                    OFFSET -4.886026 0.000000 0.000000
                                    CHANNELS 3 Zrotation Xrotation Yrotation
                                    JOINT RightHandMiddle3
                                    {
                                        OFFSET -2.665105 0.000000 0.000000
                                        CHANNELS 3 Zrotation Xrotation Yrotation
                                        End Site
                                        {
                                            OFFSET -2.367595 0.000000 0.000000
                                        }
                                    }
                                }
                            }
                            JOINT RightHandRing1
                            {
                                OFFSET -7.366940 0.000000 -1.005371
                                CHANNELS 3 Zrotation Xrotation Yrotation
                                JOINT RightHandRing2
                                {
                                    OFFSET -4.441842 0.000000 0.000000
                                    CHANNELS 3 Zrotation Xrotation Yrotation
                                    JOINT RightHandRing3
                                    {
                                        OFFSET -2.220921 0.000000 0.000000
                                        CHANNELS 3 Zrotation Xrotation Yrotation
                                        End Site
                                        {
                                            OFFSET -1.972996 0.000000 0.000000
                                        }
                                    }
                                }
                            }
                            JOINT RightHandPinky1
                            {
                                OFFSET -6.933591 0.000000 -3.033446
                                CHANNELS 3 Zrotation Xrotation Yrotation
                                JOINT RightHandPinky2
                                {
                                    OFFSET -3.553473 0.000000 0.000000
                                    CHANNELS 3 Zrotation Xrotation Yrotation
                                    JOINT RightHandPinky3
                                    {
                                        OFFSET -1.776737 0.000000 0.000000
                                        CHANNELS 3 Zrotation Xrotation Yrotation
                                        End Site
                                        {
                                            OFFSET -1.578397 0.000000 0.000000
                                        }
                                    }
                                }
                            }
                        }
                    }
                }
            }
        }
    }
    JOINT LeftUpLeg
    {
        OFFSET 8.883684 0.000000 0.000000
        CHANNELS 3 Zrotation Xrotation Yrotation
        JOINT LeftLeg
        {
            OFFSET -0.000000 -38.184189 0.000000
            CHANNELS 3 Zrotation Xrotation Yrotation
            JOINT LeftFoot
            {
                OFFSET -0.000000 -35.840691 0.000000
                CHANNELS 3 Zrotation Xrotation Yrotation
                JOINT LeftToeBase
                {
                    OFFSET -0.000000 -5.774395 13.325527
                    CHANNELS 3 Zrotation Xrotation Yrotation
                    End Site
                    {
                        OFFSET -0.000000 0.000000 3.553473
                    }
                }
            }
        }
    }
    JOINT RightUpLeg
    {
        OFFSET -8.883684 0.000000 0.000000
        CHANNELS 3 Zrotation Xrotation Yrotation
        JOINT RightLeg
        {
            OFFSET -0.000000 -38.184189 0.000000
            CHANNELS 3 Zrotation Xrotation Yrotation
            JOINT RightFoot
            {
                OFFSET -0.000000 -35.840691 0.000000
                CHANNELS 3 Zrotation Xrotation Yrotation
                JOINT RightToeBase
                {
                    OFFSET -0.000000 -5.774395 13.325527
                    CHANNELS 3 Zrotation Xrotation Yrotation
                    End Site
                    {
                        OFFSET -0.000000 0.000000 3.553473
                    }
                }
            }
        }
    }
}
MOTION
Frames:    4
Frame Time:    0.008333
5.004144    81.136147    115.577026    2.236281    0.466486    1.756509    -0.338096    -3.423096    -0.332410    -2.803672    6.542146    0.052389    2.986110    -4.014090    2.841806    2.191487    -7.653194    3.091721    1.317101    9.323534    -6.659661    -80.488632    29.168816    -8.461832    7.506577    -9.743284    2.133658    -14.855125    -40.098782    -6.017581    2.855242    0.144537    3.588126    -0.000000    0.000000    2.685338    -0.000000    0.000000    5.370677    -8.994098    0.546899    -3.451057    -18.021147    0.000000    0.000000    -9.010573    0.000000    0.000000    -15.714279    -0.341719    -0.257867    -31.434025    0.000000    0.000000    -15.717012    0.000000    0.000000    -22.376829    -1.596433    2.810461    -44.846901    0.000000    0.000000    -22.423449    0.000000    0.000000    -29.168385    -3.250547    5.800689    -58.666229    0.000000    0.000000    -29.333115    0.000000    0.000000    -2.430755    2.060318    0.494736    89.567543    40.807549    -5.728884    -2.281062    -24.743729    4.721822    22.237831    -57.238510    14.364331    -1.291329    -0.491717    -0.145844    0.000000    0.000000    -0.133440    0.000000    0.000000    -0.266879    6.198054    0.000000    -0.000000    12.396108    0.000000    -0.000000    6.198054    0.000000    -0.000000    13.624093    -0.077682    -0.200661    27.248602    0.000000    -0.000000    13.624298    0.000000    -0.000000    21.049847    -0.180647    -0.389599    42.101093    0.000000    -0.000000    21.050549    0.000000    -0.000000    28.700283    -0.311346    -0.568657    57.403660    0.000000    -0.000000    28.701830    0.000000    -0.000000    -2.932116    0.910447    -2.763690    0.662673    -0.281439    3.026412    -0.566827    -0.825934    3.783626    0.155814    0.913680    -0.084318    -4.185105    3.219777    3.375285    1.494995    0.253512    -3.348445    -0.430949    -3.547482    -6.321176    -0.013803    0.061104    0.021129    
5.008901    81.135735    115.570297    2.233287    0.451943    1.764869    -0.338454    -3.419961    -0.344410    -2.802527    6.539789    0.048342    3.000011    -4.022408    2.842627    2.183742    -7.624404    3.093651    1.314311    9.329507    -6.663520    -80.480537    29.145138    -8.465764    7.512205    -9.765295    2.118009    -14.804774    -40.074116    -5.959050    2.866314    0.142690    3.598065    -0.000000    0.000000    2.695182    -0.000000    0.000000    5.390365    -8.298410    0.452208    -3.097323    -16.621273    0.000000    0.000000    -8.310637    0.000000    0.000000    -15.247729    -0.402083    -0.032050    -30.503479    0.000000    0.000000    -15.251741    0.000000    0.000000    -22.143818    -1.619673    2.908364    -44.385681    0.000000    0.000000    -22.192841    0.000000    0.000000    -29.181475    -3.232312    5.765328    -58.688557    0.000000    0.000000    -29.344278    0.000000    0.000000    -2.426541    2.064227    0.496719    89.561577    40.806828    -5.725876    -2.278153    -24.743946    4.719271    22.267452    -57.254242    14.406695    -1.296457    -0.489063    -0.154087    0.000000    0.000000    -0.140441    0.000000    0.000000    -0.280883    6.191534    0.000000    -0.000000    12.383068    0.000000    -0.000000    6.191534    0.000000    -0.000000    13.612242    -0.079830    -0.206394    27.224918    0.000000    -0.000000    13.612457    0.000000    -0.000000    21.032639    -0.185648    -0.400750    42.066765    0.000000    -0.000000    21.033382    0.000000    -0.000000    28.677549    -0.319976    -0.584968    57.358364    0.000000    -0.000000    28.679182    0.000000    -0.000000    -2.930083    0.921893    -2.769310    0.657430    -0.289011    3.055662    -0.568989    -0.815815    3.751610    0.153535    0.908523    -0.080291    -4.185712    3.227903    3.378806    1.495432    0.259328    -3.351226    -0.422397    -3.548470    -6.327838    -0.013157    0.057655    0.020163    
5.013789    81.135475    115.563583    2.230789    0.438253    1.773440    -0.339636    -3.417927    -0.356656    -2.800495    6.538114    0.044295    3.012396    -4.031553    2.843686    2.176215    -7.596138    3.095630    1.311019    9.334064    -6.665885    -80.471992    29.120722    -8.469388    7.513775    -9.780093    2.100991    -14.749759    -40.055138    -5.898815    2.877412    0.141989    3.609685    -0.000000    0.000000    2.706444    -0.000000    0.000000    5.412887    -7.771482    0.388320    -2.842977    -15.562236    0.000000    0.000000    -7.781118    0.000000    0.000000    -14.896534    -0.441903    0.127797    -29.803141    0.000000    0.000000    -14.901570    0.000000    0.000000    -21.971430    -1.633014    2.973638    -44.044060    0.000000    0.000000    -22.022026    0.000000    0.000000    -29.197226    -3.215581    5.732038    -58.716499    0.000000    0.000000    -29.358250    0.000000    0.000000    -2.422457    2.067318    0.498210    89.555084    40.806999    -5.723032    -2.275488    -24.744623    4.717377    22.292292    -57.267910    14.442122    -1.301086    -0.487167    -0.160701    0.000000    0.000000    -0.145894    0.000000    0.000000    -0.291787    6.185514    0.000000    -0.000000    12.371029    0.000000    -0.000000    6.185514    0.000000    -0.000000    13.602114    -0.081687    -0.211350    27.204681    0.000000    -0.000000    13.602343    0.000000    -0.000000    21.018389    -0.189971    -0.410389    42.038338    0.000000    -0.000000    21.019173    0.000000    -0.000000    28.659033    -0.327437    -0.599067    57.321495    0.000000    -0.000000    28.660748    0.000000    -0.000000    -2.929620    0.930948    -2.774803    0.654517    -0.292435    3.071615    -0.570468    -0.808339    3.732791    0.151848    0.904057    -0.077527    -4.187076    3.235102    3.382520    1.496552    0.265473    -3.356342    -0.415207    -3.549639    -6.333134    -0.012444    0.054779    0.019062    
5.018913    81.135445    115.556946    2.229245    0.425644    1.782091    -0.342054    -3.417667    -0.368529    -2.797423    6.537734    0.039863    3.022368    -4.041072    2.845233    2.169057    -7.569720    3.097905    1.307417    9.336130    -6.666765    -80.463120    29.096260    -8.471432    7.508837    -9.783281    2.080702    -14.686581    -40.044903    -5.834781    2.888181    0.143103    3.623549    -0.000000    0.000000    2.719469    -0.000000    0.000000    5.438938    -7.457322    0.352133    -2.688207    -14.931167    0.000000    0.000000    -7.465583    0.000000    0.000000    -14.689108    -0.463433    0.221569    -29.389545    0.000000    0.000000    -14.694773    0.000000    0.000000    -21.872650    -1.637693    3.006491    -43.847923    0.000000    0.000000    -21.923962    0.000000    0.000000    -29.212805    -3.200457    5.701670    -58.744434    0.000000    0.000000    -29.372219    0.000000    0.000000    -2.418710    2.068902    0.498802    89.548523    40.809025    -5.720840    -2.273690    -24.746679    4.716613    22.309803    -57.278538    14.466634    -1.304512    -0.486009    -0.165187    0.000000    0.000000    -0.149451    0.000000    0.000000    -0.298903    6.181013    0.000000    -0.000000    12.362025    0.000000    -0.000000    6.181013    0.000000    -0.000000    13.595062    -0.082774    -0.214271    27.190596    0.000000    -0.000000    13.595297    0.000000    -0.000000    21.008781    -0.192505    -0.416071    42.019169    0.000000    -0.000000    21.009588    0.000000    -0.000000    28.646786    -0.331813    -0.607381    57.297092    0.000000    -0.000000    28.648546    0.000000    -0.000000    -2.931165    0.937609    -2.780289    0.653693    -0.292043    3.073531    -0.569650    -0.803416    3.728204    0.150938    0.900883    -0.076299    -4.189600    3.240716    3.386493    1.498178    0.272927    -3.364434    -0.409380    -3.551717    -6.336615    -0.011923    0.052905    0.018248    
